<mxfile host="Electron" modified="2024-02-16T07:47:59.407Z" agent="Mozilla/5.0 (Windows NT 10.0; Win64; x64) AppleWebKit/537.36 (KHTML, like Gecko) draw.io/21.2.8 Chrome/112.0.5615.165 Electron/24.2.0 Safari/537.36" etag="p2yir6bE-kLrh3Tgl6LT" version="21.2.8" type="device">
  <diagram name="Page-1" id="2XWkQP5S-hDbL94sL5Vg">
    <mxGraphModel dx="2058" dy="1180" grid="1" gridSize="10" guides="1" tooltips="1" connect="1" arrows="1" fold="1" page="1" pageScale="1" pageWidth="3300" pageHeight="4681" background="#999999" math="0" shadow="0">
      <root>
        <mxCell id="0" />
        <mxCell id="1" parent="0" />
        <mxCell id="APLwThIm-aDqV8bCMrbt-1" value="Easing Curves" style="rounded=0;whiteSpace=wrap;html=1;fontSize=25;fillColor=#dae8fc;strokeColor=#6c8ebf;" parent="1" vertex="1">
          <mxGeometry x="1298" y="140" width="650" height="60" as="geometry" />
        </mxCell>
        <mxCell id="58pRFQ01WNZyMYJgNExV-1" value="" style="shape=image;verticalLabelPosition=bottom;labelBackgroundColor=default;verticalAlign=top;aspect=fixed;imageAspect=0;image=data:image/png,iVBORw0KGgoAAAANSUhEUgAAAowAAAIbCAYAAABhUM8tAAAAAXNSR0IArs4c6QAAAARnQU1BAACxjwv8YQUAAAAJcEhZcwAADsMAAA7DAcdvqGQAAGPnSURBVHhe7f0JfFzlge75P1Xa982LAgbJK8ZgsAPYJhdjO4HEt5NMMmluc0NCctO3uwcwSTM9/+m58+npfDw3M5m+nU5CiE0DJoHExCGJkxAnYJEEJJvFNsFIxpiAVwmBjY1tWZJVWmr7n/fUWyotVaXNlqqk31euOu95z6lz3irJR4/O8h7P4muuCcsRdp+HFh7ujIDBz8tFwyeLqcRjh7gIPHy6U5FnmN/3yGweea5eHAmMyUyJkJhG75GgAADAyExILE6TMD5UeDSTkwbGIYPiRQpZBKLJZGp8N9mRCkw+afK7/gKYMm80bVy078iQwTDx9LiBMWFQdOr5vTjQ+H8ihBMAwFQ0MSF+8gXq3ncU5wNNFBoHBca4YTFhULw4yYVAhLTDDy2QuiYmZQCjNrYf2ZG92J17GMGxNzAOPyg6dfxuvDBG+UHy8WPi8NOX3Ji28gCGMCH/wybZHxyRtzP4PUWq49TbOs9VVy+OkwkvQFAcQ6rkV1IqmoDvShr9IPAzC6Suwb8CU9iENDatPqEpYUzfkREE3HjhMVI1eBmDA+OgsBgnKMYNlOluAt7RKFc5+T77qS6NvqP88F08w9/GY8T4cFPNhHxHRr3SyfXz476bAYFwYHCMO09vYIwTAgcdph5RUBzDb5YxvHS0JmCVE2BqfLBT43sJIJX1/1U7TsZ9pRPyLtPKqD+hMX20w3uxO9cIgmMkMA4IgsmDoi05gwFzpblRvpsxfAiT6/O7GCbgE5oi3xR+9jBR+v96SnET0ti0+oTG3Zg+nVG/ePJ8T9x3EntyRUb7v8e+wTE63XPVVVf3iYduduwnFh7t0BkMmCWB4c0V1yhfOoY1TpDxfaPp9/lMFWn0neGHKPX0384jLj6kZCbk0xn1StPre5l6bzOyYPc59uQadFX0wOmLnMAYKQ4IiwP3Kkb+WQPHU8UYWjTKl6beZ5DM+H8+Y5Fen+1E4BPCVNL/lxkGG/UnNP4vTCsDctQIpd5nNHjvYe+TLUbKRr95I4Gxf1gcuFcxNto3RBr9x/pJMmkoY3jp6PX9AEZgQto6IUb5TqfIBzR1fg4ADEfsV+44GvVKJ6S1425iPp7RvfjirTI20S3ZcNg3GBrxpjmB8ao++TDRXsUBex8Hjccz5AyJjfKlY1jjGEyV9zlVpNGnm2Y/CPzcXhyxTfwkNyFvdMp8uuNu1J/smL4l4//9TMX36U61YdDoDYSRQfSp33xm4Lly0VWR7fiAsNg3RGZmZamgIF/ZWdnKzslWRkbGRd36920J4kirj2f8G8tPD4CJFvk1O94mZq2jkkZNnQg2vl0czqKDwaC6u7vV0+OXz+dTwO936iPrjAbI3udovRsYk4TFoqIilZSW6My58+rs6lGXs3C/P2hnAIALLVHkNxstOy2y/cIgk+XPpcnyPoDUlJWZqdycLOXlZGtaWYnOnWtVe1tbLBxGkmKk7D45EfbKKxf15kPznzQ6Yo5TT5s2zanx6sTpc04KDUQmAMC4SRIcCI0JTIawRWAExkt2VqY+NK1cmRkenTr1ga0dHBq9g8OiGYZVXFTklLxqOn6asAhggpjNVIJkaLZX5AoAGJMef0BNJ04pEIwcVY5c2BLLhNFnb6TUNyxGdlWaw9BmzyIApLTI9gy9koTstJHu7QfSz4nTZ1VaUuJmwL6ZMLqRdQKjU+EWnZItFBQWuOcssmcRQGqIFyAIFcnx+QAYPrOn8fS5VuUX5Lvj0UwYDY3eSFo0KTI2xVwNbS5wAYDUMTAA2W0WAOCC6OzucTNgNC1GD0+bf5FzGCP17gymaLrOMVdDA0BqMaGRPWcAcDF0dfuVk5MTiYW9OxIjMdFzxRULoznSTguruqpaBw6/69YmUlxUoKzMyCmQI+EPBNXW7rNjADAadkMWRYZMYMDnlFbSue1A+rpqbpUamxqdkqf3Smkz9CxwAqMZjR6SNsPq6iq9efg9dzyR737rm5o7b54diy96I+v33j/dG1Q72s7oH/73/1Neb0akAgBGJUGgIDz2ke6hK93bD6SfRXMvV2NjU5+wGNmo9l4lHRkM/z9naUmxrlo4P+lj0RXz3Metq1bo46sjj+nTKka0HgCIL0EyZPPSR7qnZ9I/LpxvfP3/0jsHD+i9I2/FfZhpZp5U8/JzNfrI8mV2bDAz7aU/brdjF0r0qHMsG0b2MDojZjRaOZw9jD/+wYOaNWuunnrhkDzecOSRYR4h/cW181Q5s0Tnz3e48xYUFOiXLx1zy7OLfPrif/lbZWRkuuMDvbH3JZWVldox6bEfb9H/tf7/tWPDY5bxp731+srf3WtrAEx+A5IiWcMa8LmkpcnwHjDRTCC89ZOf0YmTp2xNf+VO9tj5h+26fMFVtiY1mEC44f5v6d77/ne9vOcVWxuRbNpoRfYwRg9JRzakZjjykxAtswiPJ0PHWs+rsb1dTb42NXe36l3/Ofn9ISd8Og/7FZWRPbxbCn7u9i/p0jlXuY+RhkXj6uv+A2ERmHIGJEQyhuVurSPFtJXu7UcqyMjIcMNiW1tb3Edj0zvuPKnGBEETCE0w7Lun8WKExWRGHRiDocjWeHpFjjzZAbUG2vRB1xmd7IzcVsYzYGOdW9al/Glc7ALgYiJYJMZnA6SrgaFxvMOiMerAGM2Dfz75ro6dO6FzgRZ1ql09nvNufdhumzx2I1VQel75hZFpo/Hi88/ovaMH3Ic55Bz1219u6a1/7JENbp2Z97/+ly+6ZTPv/7P+nwbNY/StN8sx8y6/4Tp3Wt/1mfkApAuCEYDJp29oHO+waIzpkLTR6QTErDy/snL9yszpUZbzcDmJMhoWjYXTL9O80jl2LLlf/ezHvWEtGuBu+uhf9B6mPtbY5IY4EwrN+Y7R+kSHoVff/B/c6eZQ98dvWePWmeV+5Ut39B7+3rf/QO+5k2bZLS3nepc7msPiAJB60jlM84dAKol30Ui8ByYPJzBGzzK0+wzNhS/R3YfD4AZF55GVYx59AqPzf7vvYuaVzXUfw9H3HMY9f9rr1plwGA2RH156rVv3g8ef0OzqKnfvYDL/2//xz+7QLMsEQRMWP/3JtXqtfl/v8k0oNNOM3z5d466j795IAMBEIzSmikvnLhzWAxdO38PQfQ9PX3AmvLkBzuTBaJIztwYco0hYjATFbDPMjgTGyBXXsRX1+P3q7Oyy4yNjwuL/+tW7e0OkCXpRZtzsHTRBcqQB7/SZs7bUnwmRZrmGWS6HpIF0Y4NFdDPUd3OENEdoxNQz8JzFgec0jofRB0bn/2x3d6eWT5ur68vm68PFC7Sk4Epdk3eVWx+ZJfIf22THUCikoPMYrXOtrbak3j2MUWbv4Nf/+/+n+fOGd8jbMIe1o4enDRMK+3bnY5hD3KZbn2sXp9Yl9gCGg2AR32T4XPjeYuSCwaDbdU4ilTNnuvOkmkQXuIx3aBx1YDTZ78orLtP/suYW/S+rPq6/Xfkf9Tcr/yf91//wGS28Ypby8ws0Y8Z0lVeUKys7yw2MXu/w/pP3PYfRHG42h55LS0p666J7GPsepv7vX/8/ew89D4dZ5u//WNv7ehMKo4ekTXiM1pvzHD/9l3e49QDSjdnm9NnuDNzjaB5IU4RGjMyPnvip289ivHMtzeOVF55350klpv/Db/2///egsBgVDY3/9s3/bmsuHs+CK66w/XWHI4eqnafq6mq9eSR5x933ffVuLV1yjR0bzOv1ug+T1vve2eX1ffv1re8+IG+CjrsnkgmI0UPRACaTIZLhlMwekyUtT5b3AcRnQmPfHHWxLZpjO+52tovukWJn/ab/7lEHRvOicMgJg3Z8uMx22ePNcD+AVGL2ZJpD0uZqbACT0cCtldkG2brU2hyNo5FuwVPVZHkfwMRLFBhH362O82qzl9Dc4m8kD/OaVAmL0cPO5mGutiYsAlNJn5AxZfPGlE3KAEZozFdJp7PoVdfmYW4nCGAKM6Fx4ANpwgRfwi9wMU3pwAhgKhlFqCBEphlCI3CxEBgxjtgLgFQ21M8nP7vpge8TcDEQGDFO+m7E2aBjIiX6+RtqF+Jk3b3I/0cAQ/NGtoGxK6Qn6yYREyneL6Th1o2FWR6/DBEPPxf9TbbPg//7wFjYaBjLhE6BPYy4yJJttKMb9b4b9+HMP5SB8w3nNZh6hvp5Gmr6ZDMZ3+9U+v4BFxeBERdB9BfPaDfW8V53MTb8F2OZmPTMn9zRBwBMEQRGXEBjCYkXUt/f5Pxmx1CiP7cDf3b52ZkcUmGbBKQ/z4IFV7hnLvY9h3F2dbVuuol+CQEAAEaru7tbhw4d0sGDB9XS0qIzZ87I5/PZqeMrLy9P5eXlqqio0IIFCzR//nzl5OTYqTEvvviSjjU2Rv7Ucu/y4t7vhcAIAABwoTU0NKi+vl5NTU22JrVUVVVp6dKlWrJkia2JSBQYOSQNAABwgXR2dqq2tlY1NTUpGxYN0zbTRtNW0+ahEBgBAAAukN27d2vHjh3q6uqyNanLtNG01bR5KARGAACAC8Acht6zZ48dSx+mzabtyRAYAQAAxshc4GLOWYy/Z/ErzuMXzuOY83AvGpmAhzk8btpg2tKfabNpu3kPiRAYAQAAxshcDR3/nMV/cR4POo/bnEe1qZgglzsP0wbTFtOm/kzbzXtIhMAIAAAwRqbrnMHM3ry/dx657lhqMG0xbRq8pzH+e4jwmp2U7p5K58kd9O66BAAAwHCYPhYH+wvnkUphMcq0ybStP9NXpJsGbTeLbh60ZfYwAgAAjNHZs2dtqa9ldpiKrrfDmPihN4LACAAAMEbx+zI05w2mqsHnUya7Cw2BEQAAAEkRGAEAAJAUgREAAABJERgBAACQFIERAAAASREYAQAAkBSBEQAAAEkRGAEAAJCUExjt7V8i94Axd4CJFgEAADDFRHNgLBOG2cMIAACA5AiMACafruPav3uPDp4J2YqIcGu9fvbIU3qzw1YAAIaFwAhg8vH6dGzXPp2Sx1ZEeHIqdeXSBZqebSsAAMNCYAQwdeTM0JXXLlBFplMOB+XvCSgUDqmnvUXnOvyDzt8OdberpaVd3UFbYTiv63bmP9vWKX90B2Z0WaGAujp86um/YxMA0l5GRUXFelvuVVZWqqrLL7djAJBmgmf19p+OKe/a63R5fp+9jO2v6YlH9ihv6SJN6zTlOjW9u1t1LzfolR079Jbm6pqqIucv6R6dePmn+sEvXtSBt17Tiy8fVda8q3RpVpOeffQxPfPaQb3d8JJePNCjy66uVonPLGuH3ml+Qc/8/m15Fi5VVUH/vZsAJre6ujpb6mtQxEox/7cdxsyZM0fnzp2TxxPZhpmhKbKHEcDU5Tul0OIv6p519+re269S+97X9K7fyZsnXtJvXsnTJ+65T/fe+zV9ZUW3dtW9LV84Tws/c4/u++pdunvdF/ThngY1NPdEltV1Uv6FX9L/7//4a900jbAIYHIhMAKYunIv0xVVBe6ZjrnTL1F52CdfQGptOqbO3G7tf/rn+tnPtur5Yz0KnP1A57Onq6z7DT331BY99uivVH8uoB6/PV6dWan5c0qcjWrkr3EAmEwIjACmLo9X3mi4c1JepBxWOByWp3SOrlt2g66//npdv+JWfe4/XqXMt7fpsd+9o+LFH9Vn77xdN12S5b7UlZGjHHNuJABMQgRGAJNWKBhyw1/kYSuH5FHRhy6R97131TN9tubOnau5sytVVJCnnlMfKGP2Ui2ZW6nSwHEdO2UOR7M7EcDkR2AEMDmFT2rno/9D//Iv/6L/75v/ok0vvK/hXrycXX2z/uOi09r2/W/r+//+oO7/9iP6fVOPpi1YpLz9T+r7GzbogSf+LE+F6Z9n2EkUANKWZ978Be6f3u4mzx2GNbt6tlauvMmdAQDST0iBHr+CfbKcNzNbWd6Q/IGwMjIz5Q0HnLKUkeWUzU5C0zWOPyRvVpYy7KHpYGebWjul3KIi5WdF/r4OBzrVfj6g7KJCZYecdXid5XoGLAvAlLN+fbwrolP9D8rBG6yPfewWHWs8Zs7Gdk/VMXOYK6XZwwhgEvIqMztHOTmxR5ZJgZ4MZUVDnTdTWdl9Ap6Zlh0Ni4ZHGXklKi8v6Q2LhiczT8WlRcp1ZvRmOWExw6kcuCwAmGQIjAAAAEiKwAgAAICkCIwAAABIisAIAACApAiMAAAASIrACAAAgKQIjAAAAEiKwAgAAICkCIwAAABjlJ+fb0t9NdphKnrHDmPy8vJsaTACIwAAwBhVVFTYUl+v2mEqesUOY8rLy21psH6BMXI/abcIAACAYSorK7Olvp5xHl2RYkoxbTJt66839DpZsG8cNGX2MAIAAIzRggULbKmvx5zH95xHKoVG0xbTJtO2/uK/hwgCIwAAwBjNnz9fVVVVdqyv/+Y87nEeW53H4PMGx485n9K0wbTFtKk/03bzHhIhMAIAAIxRTk6Oli5dqtzcXFvTl9mb95+chwmUngl6zHYepg2D9yyaNpu2m/eQCIERAADgAliyZImWL19ux9KHabNpezIERgAAgAtkxYoVWrVqVYI9janFtNG01bR5KARGAACAC8T0ZbhmzRqtXbs2wTmNqcG0zbTRtDVZ/4tRGeUVFettuZe5NLyq6nI7BgAAgJGorKzUokWL3GFmZqb7CAQC7mMimI7FTVuqq6u1cuVKrV69WrNmzbJTY9555x2dO3dO8nicf87DVJrhvPkLwgo7/5zxsDM05dmzZ+uPf/yDmQUAAABTxC233Kpjx44NCowckgYAAEBSCfcwrlx5U2SOPrq7u3Xo0CEdPHhQLS0tOnPmjHw+n506vszxdnMLG9Mruelo0vQdlOxycAAAACT3wgsvxt3D6ATG+W5ONDd+iQRGxQ2MDQ0Nqq+vV1NTk61JLebkTdOH0FCXhQMAACA+ExiPOoHRyYhOWDRPJjgO4yrpzs5O1dbWqqamJmXDomHaZtpo2mraDAAAgAtjyMC4e/du7dixQ11dqXjz7P5MG01bTZsBAABwYSQNjOYw9J49e+xY+jBtNm0HAADA2CU8h3HZshu0ZcuWuIeh77zzNq1du1pLly5WVdWltnZ8NTcf1969r6umpk6bN5ubafdnzmm84447uBAGAABgmBKdw5iw425z9fOuXbtsTcw3vvGP+vrX79PVVy9UaWmxrR1/JSVFWrhwnm69daUKCwtVW/uSnRLR2trqdlA5Y8YMWwMAAIBkTMfdLefODQqMCQ9Jm65zBjJ7Ftet+3JK7bUzbTFtMm0bKN57AAAAwMgkDIymj8WBzGHoVDzEa9pk2jaQ6SsSAAAAY5MwMJ49e9aWYq677hpbSj3mfMqB4oVeAAAAjEzCwBivL8PLLrvEllJPvItvJuouNAAAAJNJ0m51AAAAAAIjAAAAkvKafhcNty9GtxvGyBcAAACmlkgGdANhLA06BfYwAgAAICkCIwAAAJIiMAIAACApAiMAAACSIjACAAAgKQIjAAAAkiIwAsBF0dshBQCkPQIjgPTXdVz7d+/RwTMhW5FcsOOEDrz8B/1u2zZtr9uroy1+O+UC8TfqmQce1YunCY0AJgcCI4D05/Xp2K59OiWPrUjMd2S7Hnlgs1487lF55Qzlnz+gbQ9t0C/2tWh4cXN4uAECgMmEwAhgcgkH5e8JKBQOqae9Rec6/LHo1vm2nn3qTU379F3629tu0UeWrdCqT31Jd3/hKn3w7NNqaHXmDAXU4w/FXuOOB2PjzvK7neWebeuUM1s/wa42tZzrUM+FTJ4AkAK87kbQvS+gPeOmd6sIAGmovV5bHnxS27Zu0qYf/0SPfu/b+uELJxRwJvmO7dfRwuu1alFxv7+Wcy5frmUz39cbh9sUPFGrRzbV6aQNfaGTO7Xp4ed13Iz3HNOzD9+vBx//mX72+EY98FidmnvMXN16d8cP9Z37H9UTP3lMD23epdOeofd2AkAqMrGwNw46I6bMHkYAk4/vlEKLv6h71t2re2+/Su17X9O7/rB8587JO22GigZt+fJUPi1HvraO5H8zh/O08DP36L6v3qW7131BH+5pUIOTGIMnXtZv/1Sgj99zn77qrPOuT0xTRxt/fQOYPAiMACaf3Mt0RVWBe0Zj7vRLVB72yReQPB6PwsFgnHMVwwoGw8rIykx+FmTOdJV1v6Hnntqixx79lerPRQ5Xt75zTF1VV2t+cWSTml05T1WFbhEAJgUCI4DJx+OVN5r8nJAYKXtUNHOmPM2H9F6XOyXGf0pHm4KaUVkSGbeHYCLF2PmMvre26bHfvaPixR/VZ++8XTddkuXWh4IheTIyYhvUUFABzmMEMIkQGAFMGdlVy3VjxRHVPPO6zgZsDAy26eAfn9YbBcu0YnaOvHmFyvO9rxPtZnpAp480ylwL46RAtZ36QBmzl2rJ3EqVBo7r2ClzAqMJojMUPvamGn1mxrB8jW/o6HnzGgCYHAiMACaH4VxkkjFdy2//Ky3x1eqRb31L3/nud/Sv/+N7evJAgW5ce71mZjiLKbtaK+Z+oGcffkAbH3xYT5/MV5m7aK+mLVikvP1P6vsbNuiBJ/4sT0W2Ux9WzpzV+vic9/TU97+nDRu/r8df8+pDpcNoDwCkCc/cefPD0cMvYfeymLBmz5mt5597LjJHHx0dh20pNRUUzLOlmPXr19sSgMkrpEBPQMrMVqYC8jtFcz6ieyjadLPjD8mblaWM3gwXVrDrvNp8fmXmZ+nMrq36+UstmvWx2/W5FZcq1xNSd/s5+bxFKs3zyB/0KCsrwz2/MRzoVPv5gLKLCpUd8ivozZYzyV1mz/lz6gjnq6QoW2G/X+EMpz38WQ4gjex84QUdPXrMPefbfZhKc2qPOxUA0prXyYo2nHkzlZVtw6LhyXDG+4ZFw6OM3CKVlZeryBlWr/kvuu/vv6yPz89RT7f589mrnKJylRVkyeMsL9uGRcOTmafi0iLlOgv0ZkXDouFRdmGZyopynFc7y3emERYBTBZszgDAhL2iCk2bNk3Fuf2SJQDAQWAEAABAUgRGAAAAJEVgBAAAQFJuYHS7GItcJx0pRyoAAAAwlfRmQKfQ5yYG7GEEAABAUgRGAAAAJEVgBAAAQFIJA2N+fr4txTQ1vWdLqae5+bgtxeTl5dkSAAAARithYKyoqLClmPr6/baUevbufd2WYsrLy20JAAAAo5UwMJaVldlSTE1Nnbq7u+1Y6jBtMm0bKF7oBQAAwMgkDIwLFiywpZjNm7dq48YfpVRoNG0xbTJtGyjeewAAAMDIZJSXV6y35V5m7+I111yj5uZmtba22tqI2tqXdPz4KQUCARUU5KukpMhOGV/mfMq6upe1YcPjuv/+TbY2pqqqSqtXr1ZmZqatAQAAQDJNTe+o5dw5eTzmLvvmyXk2j7nz5ocdzixhmaEpzpk9WzffvFINDQ2qqalRV1dXZClpIjc3V2vXrtWSJUtsDQAAAIayc+cLOnrs2KDAmLRbHRO4li9fbsfSh2kzYREAAODCcAKjvelL9N4vA6xYsUKrVq1y99qlOtNG01bTZgAAAFwI4eR7GA3Tl+GaNWvcQ7zmvMBUZdpm2mjaSv+LAAAAF05GeXl53IteBobDyspKLVq0yB2aC0nMw1z4Yh4TwXQsbtpSXV2tlStXuhe4zJo1y04FAADASMW/6MUZzJ03z17zEjaXvfRe9PLcc3+MvBIAAABTwsc+dkuci16S9MMIAAAAGAn3MJpudQYynWQfOnRIBw8eVEtLi86cOSOfz2enji9znqK59Z+5m4vpoHv+/PnKycmxUwEAADBS8bvVGUFgNH0y1tfXq6mpydakFnPO5dKlS+lOBwAAYJQSBcYhD0l3dnaqtrbW7cA7VcOiYdpm2mjaatoMAACAC2PIwLh7927t2LEjLe72Ytpo2mraDAAAgAsjaWA0h6H37Nljx9KHabNpOwAAAMYu4TmMy5cv05YtW+Iehr7zztu0du1qLV26WFVVl9ra8dXcfFx7976umpo6bd681dbGmHMa77jjDi6EAQAAGKZE5zAm7Li7s9OnXbt22ZqYb3zjH/X1r9+nq69eqNLSYls7/kpKirRw4TzdeutKFRYWqrb2JTslorW11e3Ye8aMGbYGAAAAySTquNsrs3fR3bfoDtw9jaZgus4ZyOxZXLfuyym11860xbTJtG2geO8BAAAAiTg50GTByL8Ip5DwHEbTx+JA5jB0Kh7iNW0ybRvI9BUJAACAsUkYGM+ePWtLMdddd40tpR5zPuVA8UIvAAAARiZhYIzXl+Fll11iS6kn3sU3E3UXGgAAgMlkyH4YAQAAMLURGAEAAJAUgREAAABJERgBAACQFIERAAAASREYAQAAkBSBEQAAAEl53du+2KfeW8AAAABgyordFjCSD9nDCAAAgKQIjAAwbjiOAyA9ERgBpKVgx3EdePkP+t22bdpet1dHW/x2yugEO05c0OUN4m/UMw88qhdPExoBpB8CI4C04zuyXY888IRePO5ReeUM5Z8/oG0PbdQv9rUoZOdJrE1/3v6kfn8wdr/8yPI2D1jehmEub/g4UxxAuiIwAkgvnW/r2afe1LRP36W/u+0WfWTZCq361Jd09xcW6YNnn1ZDqxPKQgH1+EOxeOaOB93AFg4F1fb+SbX7e9Rt5umzvL/tt7yrhrE8KxxUd3uLzrZ1ypmtn2BXm1rOdajnQiZPABhnBEYAacV3bL+OFt6gVYuK5bF1Rs7ly3XDzPf1xuE2BU/U6pFNdTppQ1ro5E5tevh5HQ+d1Z6fPK6d77fr4PYfaOOW3XrPXd717vL6bhDN8pYNuTxnpOeYnn34fj34+M/0s8c36oHH6tTcY+bq1rs7fqjv3P+onvjJY3po8y6d9vRtMQCkDwIjgDQSlq+lRd5p01U0aOuVp4ppOfK1dcT2/A1SoRV3fkU3Vxbpik/dpX/48o3KPXfOWd6MuMsrH3J5jnCeFn7mHt331bt097ov6MM9DWpwEmPwxMv67Z8K9PF77tNX192ruz4xTR1tSZcEACmLwAggrXi8XoWDwTjnFoYVDISVkZXZb89jIl5vhjv0eDyJlxccxvJypqus+w0999QWPfbor1R/LnK4uvWdY+qqulrziyOb2ezKeaoqdIsAkHYIjADSiEdFM2fK03xY73XZqij/KR19J6iZlSWRcdvZbKTY5/zDfqLLOxR/eU1BzRhieb63tumx372j4sUf1WfvvF03XZLl1oeCIXkyMmIb2VBQgcGpFADSAoERQFrJrlquGysOq+aZfToTsLEt2KaDf3xabxQu14rZOfLmFSrP975OtJvpAZ0+0ihz7UqER15vWP5AwB2LLO+Is7zXdXbg8gqWDbG8kNpOfaCM2Uu1ZG6lSgPHdeyUOYHRBNEZCh97U40+M2NYvsY3dPS8eQ0ApB/PnLnzwg7717Pz5QznzJmj2ueft7PEdHQctqXUVFAwz5Zi1q9fb0sAJo3Od7Tzl7/Wy83dys7NVKC7RzmzbtRn//JmVeV5nO1Zuw78+gfadtij4sJM5c0oU9f70/WZe27Vpd6gTr74mB5/uUMFly7Tf77jRlV0vaMX+i6vs0Nd2dW65Y6/0kcuyUm6vJmnXtSPHt+pc4XFyvRO14dy31fGR/5Of3mFXwee+pF+ezCowkKvvOXVKj99UrM+/ze6aRoXvwBITTt27tTRo8dkrtEzp+yYLzNCYASQpsIKdp1Xmy+gzPxiFeZmmM1aHyF1t5+Tz1ukUidE+oMeZWVF5wnJ39GuzoxCFTuvi4guz+8sL0tndm3Vz19q0ayP3a7PrbhUuZ7EywsHOtV+PqDsokJlh/wKerPlTHKX2XP+nDrC+SopylbY71c4I9sJlmYaAKSeRIGRzRaANOVRRm6RysrLVDQoLBpe5RSVq6wgSx5vprJ7w6LhVVZBSZ+waESXV+4sr0jVa/6L7vv7L+vj83PU020OKydeniczT8WlRcrNcDaqWdGwaHiUXVimsqIc59XO8p1phEUA6YhNFwDE5YS9ogpNmzbNCZaD4ygATCUERgAAACRFYAQAAEBSBEYAAAAkRWAEAABAUgRGAAAAJEVgBAAAQFIERgAAACSVMDDm5+fbUkxT03u2lHqam4/bUkxeXp4tAQAAYLS85paAhvscKbrDiooKOxJTX7/fllLP3r2v21JMeXm5LQEAAGBI0UBo/kUG7njCPYxlZWW2FFNTU6fu7m47ljpMm0zbBooXegEAADAyCQPjggULbClm8+at2rjxRykVGk1bTJtM2waK9x4AAAAwMhllZeXrbbmX2bt47bXXqLm5Wa2trbY2orb2JR0/fkqBQEAFBfkqKSmyU8aXOZ+yru5lbdjwuO6/f5OtjamqqtLq1auVmZlpawAAAJBMU1OTWs61yON8yeM8uw+nOGfOXPcsxrB7oDos8zVn9hytWnWzGhoaVFNTo66urshS0kRubq7Wrl2rJUuW2BoAAAAMZceOnTp67OigwJi0Wx0TuJYvX27H0odpM2ERAADgwhiyH8YVK1Zo1apV7l67VGfaaNpq2gwAAIALY8jAaPoyXLNmjXuI15wXmKpM20wbTVvpfxEAAODCSXjRS3V1/3BYWVmpRYsWuUNzIYl5mAtfzGMimI7FTVuqq6u1cuVK9wKXWbNm2akAAAAYqRFf9PL8889FXgkAAIAp4aMf/djIL3oBAAAA7B5G58vdwRjZyzhnTqRbnYFMJ9mHDh3SwYMH1dLSojNnzsjn89mp48ucp2hu/Wfu5mI66J4/f75ycnLsVAAAAIxUtFsdJyLGDkebr+EGRtMnY319vXtsOxWZi16WLl1KdzoAAACjlCgwDnlIurOzU7W1tW4H3qkaFg3TNtNG01bTZgAAAFwYQwbG3bt3O2lzR1rc7cW00bTVtBkAAAAXRtLAaA5D79mzx46lD9Nm03YAAACMXcJzGFesWK4tW7bEPQx95523ae3a1Vq6dLGqqi61teOrufm49u59XTU1ddq8eautjTHnNN5xxx1cCAMAADBMic5hTNhxtzkPcNeuXbYm5hvf+Ed9/ev36eqrF6q0tNjWjr+SkiItXDhPt966UoWFhaqtfclOiWhtbXU79p4xY4atAQAAQDLRjruHfdGL6TpnILNncd26L6fUXjvTFtMm07aB4r0HAAAAjEzCwGj6WBzIHIZOxUO8pk2mbQOZviIBAAAwNgkD49mzZ20p5rrrrrGl1GPOpxwoXugFAADAyCQMjPH6MrzssktsKfXEu/hmou5CAwAAMJkk7VYHAAAAiATGsPvsihT7VAAAAGDKML0s9rJl9jACAAAgKQIjAAAAkiIwAgAAICkCIwAAAJIiMAIAACApAiMAAACSIjACAAAgKQIjAEwo+r0FkPoIjABSV9dx7d+9RwfPhGxFcsGO4zrw8h/0u23btL1ur462+O2U0Ql2nLigyxvE36hnHnhUL54mNAJIbQRGAKnL69OxXft0Sh5bkZjvyHY98sATevG4R+WVM5R//oC2PbRRv9jXoqHjZpv+vP1J/f5g7B76keVtHrC8DcNc3vCF2cMIIA14ezdV7n1g2HABSFHhoPw9AYXCIfW0t+hchz+2xep8W88+9aamffou/d1tt+gjy1Zo1ae+pLu/sEgfPPu0GlqdOUMB9fhDsde440E3sIVDQbW9f1Lt/h51m3n6LO9v+y3vqmEsz3La2+2082xbp5zZ+gl2tanlXId6LmTyBIALIroVc4b2HoHmmT2MANJDe722PPiktm3dpE0//oke/d639cMXTijgTPId26+jhTdo1aLifvsicy5frhtmvq83DrcpeKJWj2yq00kb0kInd2rTw8/reOis9vzkce18v10Ht/9AG7fs1nvu8q53l9d3I2mWt2zI5TkjPcf07MP368HHf6afPb5RDzxWp+YeM1e33t3xQ33n/kf1xE8e00Obd+m0Z+i9pwAw0QiMANKH75RCi7+oe9bdq3tvv0rte1/Tu/6wfC0t8k6brqJBW7Q8VUzLka+tI7bnb5AKrbjzK7q5skhXfOou/cOXb1TuuXPO8mbEXV75kMtzhPO08DP36L6v3qW7131BH+5pUIOTGIMnXtZv/1Sgj99zn77qvIe7PjFNHW1JlwQAKYHACCB95F6mK6oK3L2IudMvUXnYJ19A8ni9CgeDcc4tDCsYCCsjK3MYZ0E6G0Rvhjv0eDyJlxccxvJypqus+w0999QWPfbor1R/LnK4uvWdY+qqulrziyOb3uzKeaoqdIsAkNIIjADSh8crbzSpOaEuUvaoaOZMeZoP670ud0qM/5SOvhPUzMqSyHg4dolJONzn/MN+oss7FH95TUHNGGJ5vre26bHfvaPixR/VZ++8XTddkuXWh4IheTIyYhveUFCBwakUAFIOgRFA2suuWq4bKw6r5pl9OhOwsS3YpoN/fFpvFC7Xitk58uYVKs/3vk60m+kBnT7SKHPtSoQTPr1h+QPmjMjo8o44y3tdZwcur2DZEMsLqe3UB8qYvVRL5laqNHBcx06ZExhNEJ2h8LE31egzM4bla3xDR8+b1wBAassoKytfb8u9ysvK1NjYaMdi/umfvmZLqemb33zAlmJWr15tSwDSTvCs3n61UXnXfliXZ5zQvvpWXXrDIk3PdKb1nNDr9S360PVXaXp2gWZdMUvdr9foN9t36pVX9+iFnbt1LGupPvdXN+nSbI88uaXKOfminvnDK3p9X72OqVhZHQVaeMNcFXuylHn+TdU+t0cNjWHNueYKzV84Sz2vb9dT0eXVvaCGszO06n++VVeWZCZZ3jzNyO3Ugd8/rZ0N+/Sn/T4VFXfKe9l1Wjz/chWffEHbtu9Sw74/ad+5Ms0Idah4sfP+8odz0BwALq6mpia1tJwzB3GcP3OdL7fgDGfPmRt2D6u4h1bcoubOma3a2lr70piOjsO2lJoKCubZUsz69YPyMIC0EVKgJyBlZitTAfmdojl/0D0UbbrZ8YfkzcpSRm/WCivYdV5tvoAy84tVmJvhbO76Cqm7/Zx83iKV5nnkD3qUlRWdJyR/R7s6MwpV7LwuIro8v7O8LJ3ZtVU/f6lFsz52uz634lLlehIvLxzoVPv5gLKLCpUd8ivozZYzyV1mz/lz6gjnq6QoW2G/X+EM5/1xvAdACtixY4eOHD1GYASA0XPCXvtZtXWHlV1Y4QTL/nEUANJdosDI37QAMGweZRdVaNq0aYRFAFMKgREAAABJERgBAACQlBMYzZmLllvoHQMAAMAUEkmBzrONg9Fx9jACAAAgKQIjAAAAkiIwAgAAICkCIwAAAJJKGBjz8/NtKaap6T1bSj3NzcdtKSYvL8+WAAAAMFoJA2NFRYUtxdTX77el1LN37+u2FFNeXm5LAAAAGK2EgbGsrMyWYmpq6tTd3W3HUodpk2nbQPFCLwAAAEYmYWBcsGCBLcVs3rxVGzf+KKVCo2mLaZNp20Dx3gMAAABGJqOsrGy9LfcqLyvTtddeq+bmZrW2ttraiNral3T8+CkFAgEVFOSrpKTIThlf5nzKurqXtWHD47r//k22NqaqqkqrV69WZmamrQEAAEAyjU1Namlpkcd8eTxynsw/eWbPmRMOm268nSdTMF9z58zRqlWr1NDQoJqaGnV1dUWWkiZyc3O1du1aLVmyxNYAAABgKHU7dujo0aODAqM9JN3/9oDRsglcy5cvt2Ppw7SZsAgAADAKNgj2ZkNHwnMYo1asWOHubTR77VKdaaNpq2kzAAAALowhA6Ppy3DNmjXuIV5zXmCqMm0zbTRtpf9FAACACyfuRS9l5WWqrq62YxGVlZVatGiROzQXkpiHufDFPCaC6VjctMW0c+XKle4FLrNmzbJTAQAAMFK9F730nr/Y76IXc8GLM5e98GXO3Dmqff75yCsBAAAwJaz56Ed19MjRQYFxyEPSAAAAmNoS7mFcvWpVZI4+TCfZhw4d0sGDB93dlWfOnJHP57NTx5c5T9Hc+s/czcV00D1//nzl5OTYqQAAABgpt1udOHsYhx0YTZ+M9fX1ampqsjWpxVz0snTpUrrTAQAAGKVEgXHIQ9KdnZ2qra11O/BO1bBomLaZNpq2mjYDAADgwhgyMO7evVs7nLSZDnd7MW00bTVtBgAAwIWRNDCaw9B79uyxY+nDtNm0HQAAAGOX8BzGG1es0JYtW+Iehr7zztu0du1qLV26WFVVl9ra8dXcfFx7976umpo6bd681dbGmHMa77jjDi6EAQAAGKZE5zBmlJWWrR94z0DTcXdXZ6d27dpla2K+8Y1/1Ne/fp+uvnqhSkuLbe34Kykp0sKF83TrrStVWFio2tqX7JSI1tZWt2PvGTNm2BoAAAAkE+24OxIWnYFTZ0JjwkPSpuucgcyexXXrvpxSe+1MW0ybTNsGivceAAAAMDIJA6PpY3Egcxg6FQ/xmjaZtg3kJmQAAACMScLAePbsWVuKue66a2wp9ZjzKQeKF3oBAAAwMgkDY7y+DC+77BJbSj3xLr6ZqLvQAAAATCZJu9UBAAAACIwAAABIisAIAACApAiMAAAASIrACAAAgKQIjAAAAEjKG70dYOTGgOHe2wMCAABg6hmUBZ0K9jACAAAgKQIjAAAAkiIwAsCE4kQgAKmPwAgg5QU7juvAy3/Q77Zt0/a6vTra4rdTRqjruPbv3qODZ0K2Irlgx4kLs95E/I165oFH9eJpQiOA1EZgBJDSfEe265EHntCLxz0qr5yh/PMHtO2hjfrFvhYNHfva9OftT+r3B+298b0+Hdu1T6fkiYwnEVnv5gHr3TDM9Q4flxoCSAcERgCpq/NtPfvUm5r26bv0d7fdoo8sW6FVn/qS7v7CIn3w7NNqaHXCViigHn8oFrvc8aAbxMKhoNreP6l2f4+6+85jhIPy9wQUCofU096icx3+2PQ+6/3bfuu9ahjrtZzldzvLPdvWKWe2foJdbWo516GeC5k8AeAiIjACSFm+Y/t1tPAGrVpU3G+fYM7ly3XDzPf1xuE2BU/U6pFNdTppw1fo5E5tevh5HQ+d1Z6fPK6d77fr4PYfaOOW3TrTNzG212vLg09q29ZN2vTjn+jR731bP3zhhALOpMh6r3fX23cjada7bMj1OiM9x/Tsw/frwcd/pp89vlEPPFan5h4zV7fe3fFDfef+R/XETx7TQ5t36bRn6L2dADDRCIwAUlRYvpYWeadNV9GgLVWeKqblyNfW0X+vYT8VWnHnV3RzZZGu+NRd+ocvf0TTBmYz3ymFFn9R96y7V/fefpXa976md/3Oes+dc9Y7I+56y4dcryOcp4WfuUf3ffUu3b3uC/pwT4ManMQYPPGyfvunAn38nvv0VWedd31imjraki4JAFICgRFAyvJ4vQoHg3HOGQwrGAgrIytzGGcjOhs6b4YtDZB7ma6oKnCXkTv9EpWHffIFnPV6PInXGxzGenOmq6z7DT331BY99uivVH8ucri69Z1j6qq6WvOLI5ve7Mp5qip0iwCQ0giMAFKUR0UzZ8rTfFjvddmqKP8pHX0nqJmVJZHxcOzSkXB4wLmKyXi88kaTnxMSI+Xoeg/FX29TUDOGWK/vrW167HfvqHjxR/XZO2/XTZdkufWhYEiejIzYhjcUVGBwKgWAlBMnMDqbvGFvbQHg4smuWq4bKw6r5pl9OhOwG6Zgmw7+8Wm9UbhcK2bnyJtXqDzf+zrRbqYHdPpIo8w1KRFOCPSG5Q+YMxOHL7LeI856X9fZgestWDbEekNqO/WBMmYv1ZK5lSoNHNexU+YERhNEZyh87E01+syMYfka39DR8+Y1AJBKItuoKFPKKC0rWx8ZjSkvK1djY6Mdi/mnf/qaLaWmb37zAVuKWb16tS0BSDveAs26Ypa6X6/Rb7bv1Cuv7tELO3frWNZSfe6vbtKl2R55ckuVc/JFPfOHV/T6vnodU7GyOgq08Ia5KvZkKfP8m6p9bo8aGsOas6hAza82Ku/aD+vyjBPaV9+qS29YpOmZzrp6Tuj1+hZ96PqrND27QJc66+15fbueiq637gU1nJ2hVf/zrbqyJDPJeudpRm6nDvz+ae1s2Kc/7fepqLhT3suu0+L5l6v45Avatn2XGvb9SfvOlWlGqEPFi5325A/n4DoAXFyNTU1qaWlxT81xH86XOQLjqZ49Jxw5rGIGkcfcOXNVV1drXxrT0XHYllJTQcE8W4pZv35QHgaQdsIKdp1Xmy+gzPxiFeZmmE1YHyF1t5+Tz1uk0jyP/EGPsrKi84Tk72hXZ0ahinM9CvQEpMxsZSogv1M05yO6h6JNNzv+kLxZWcroXXh0vX5nvVk6s2urfv5Si2Z97HZ9bsWlyvUkXm840Kn28wFlFxUqO+RX0JstZ5K7zJ7z59QRzldJUbbCfr/CGU57OEEIQAqo27FDR44cITACwOg5Ya/9rNq6w8ourHADKABMJokCI3/TAsCweZRdVKFp06YRFgFMKQRGAAAAJEVgBAAAQFIERgAAACRFYAQAAEBSBEYAAAAkRWAEAABAUgRGAAAAJOUGRvdugbFbBrry8/NtKaap6T1bSj3NzcdtKSYvL8+WAAAAMKRoHjRD5xEdTbiHsaKiwpZi6uv321Lq2bv3dVuKKS8vtyUAAACMVsLAWFZWZksxNTV16u7utmOpw7TJtG2geKEXAAAAI5MwMC5YsMCWYjZv3qqNG3+UUqHRtMW0ybRtoHjvAQAAACOTUVpWtt6We5WXlevaa69Vc3OzWltbbW1Ebe1LOn78lAKBgAoK8lVSUmSnjC9zPmVd3cvasOFx3X//JlsbU1VVpdWrVyszM9PWAAAAIJnGxia1tLTIY748HjlP7tBTPXtO2CE5D/fLGc6dM9cJW6vU0NCgmpoadXV12cWkh9zcXK1du1ZLliyxNQAAABhKXd0OHTl6ZFBgTNqtjglcy5cvt2Ppw7SZsAgAAHBhJA2MxooVK7Rq1Sp3r12qM200bTVtBgAAwIUxZGA0fRmuWbPGPcRrzgtMVaZtpo2mrfS/CAAAcOEkvOilurrajkVUVlZq0aJF7tBcSGIe5sIX85gIpmNx0xbTzpUrV7oXuMyaNctOBQAAwEiN+KKX2trn7UsBAAAwFaxZ89HkF724t34xT9F7wAAAAGDqsVmwbyTs3cPYu5fR7GGcG+lWZyDTSfahQ4d08OBBd3flmTNn5PP57NTxZc5TNLf+M3dzMR10z58/Xzk5OXYqAAAARsrtVufIkX57F/sdkh4qMJo+Gevr69XU1GRrUou56GXp0qV0pwMAADBKiQLjkFdJd3Z2qra21u3AO1XDomHaZtpo2mraDAAAgAtjyMC4e/du7dixIy3u9mLaaNpq2gwAAIALI2lgNIeh9+zZY8fSh2mzaTsAAADGLuE5jDfeuEJbtmyJexj6zjtv09q1q7V06WJVVV1qa8dXc/Nx7d37umpq6rR581ZbG2POabzjjju4EAYAAGCYEp3DGL/j7vJydXV1ateuXbYm5hvf+Ed9/ev36eqrF6q0tNjWjr+SkiItXDhPt966UoWFhaqtfclOiWhtbXU79p4xY4atAQAAQDK9HXcPCIwJD0mbrnMGMnsW1637ckrttTNtMW0ybRso3nsAAADAyCQMjKaPxYHMYehUPMRr2mTaNpBJyAAAABibhIHx7NmzthRz3XXX2FLqMedTDhQv9AIAAGBkEgbGeH0ZXnbZJbaUeuJdfDNRd6EBAACYTJzAaO4UGLlbYOQZAAAAU1n/TBhOvIcRAAAAMAiMAAAASIrACAAAgKQIjAAAAEiKwAgAAICkCIwAAABIisAIAACApAiMAAAASIrACAAAgKQIjADSX9dx7d+9RwfPhGzFEPytamp4Qc/+dpt+u/157Xn7A3Ulu9VV26v68f2/1FtddryPcGu9fvbIU3qzw1YAwCTkjd37hRsDAkhTXp+O7dqnU/LYisT8p17Rlu//u36zv0250ys1La9TR1/7s84OM2sO5Mmp1JVLF2h6tq0AgLTWNw+asvNw/rGHEcDkEg7K3xNQKBxST3uLznX4Y5s//zuq/fkOBW/6G91z5ye1asUy3bj6k/r852/WJZ6Aevyh2LwhMx6MjbvC8p9v0dn2bvXmy5wZuvLaBarItOOOcKBTbS0tausKDHg9AKQnAiOAyaW9XlsefFLbtm7Sph//RI9+79v64QsnFHAmdR17TQe81+mW66apT75zBU/U6pFNdTppk2Do5E5tevh5He9Nht06/MwmPfSjLXrioe/qez99VaeDTrW7vt/oYLeZJ6gzDVu14Tsb9fiTP9UPN2zW7jNERgDpj8AIYPLxnVJo8Rd1z7p7de/tV6l972t61x9Wx+nT0owPqTTDzjcSHe/p/JzbtW7dOn3tvi/oqjM7VPtW/xMXQx/s0q+f69Tyv75PX7v7Hv39fbdrSdHQh8kBINURGAFMPrmX6YqqAveMxtzpl6g87JPP7GJ0KsKhPoedRyL3cl01vySy0cyq1IJ5uTr7QVvs0LSj9eghdVTfoMXTIvsvPZn5yuPcRgCTAIERwOTj8cob3bHn8diyR0UzZsrz7mG9F+dqZ1c43Bsmw+EBwdKboczeLWZI/p6gU+Xtc5lNWCEnjIacZQDAZENgBDBlZFcv07LSt/XM7xp02h8NdiF1nv5AHbmFyvO9rxPtpj6g00ca1do3+3W+q7ebfW6IDHcc1f7D0qzLy/sERo+KL52lzGMNeutcZL9juKdN7YnCKQCkEQIjgMnBE4tuCWXM1Ec+f7uWdNZp07f+h/7tu9/Vt//1X/X9Xx/Q+dKrtWLuB3r24Qe08cGH9fTJfJX1XWRBqbp2/1AbNm7Qd7//W52++lNaXZVlJ0ZkXb5an13WrT8++G96wMz3vV/pgI89jgDSn6e6erZ7ECZsnt0/ncOaO3eu6upqI3P00dHh/EmdwgoK5tlSzPr1620JwOQVUqAnIGVmK1MB+Z1iRlZm5FC06WbHH5I3K0sZvQEwrGDXebV19MiTW6Ti/Gx72Dqk7vZz8nmLVJrnkT/oUVZWhjyh6DKl7rZ29WQ7r8nLjOxdNMsPhJWRadfnCHWfV6svqJzCYuVn9a4UAFJeXV2djhw56v4Rbv4O95ih88UeRgCTgNfJik5YNFs0b6aysmPhTZ4MZ7xvWDQ8ynCCYllFhUoLomHR8CqnqFxlBVnyOMvJNmHRrY4uM1N5JWUqiYZFwyw/Gk4tb06hyspKCIsAJg0CIwAAAJIiMAIAACCpBIGRk7QBAACmrv5ZkD2MAAAASIrACAAAgKQIjAAAAEiKwAgAAICkCIwAAABIKmFgzM/Pt6WYpqb3bCn1NDcft6WYvLw8WwIAAMBoJQyMFRUVthRTX7/fllLP3r2v21JMeXm5LQEAAGC0EgbGsrIyW4qpqalTd3e3HUsdpk2mbQPFC70AAAAYmYSBccGCBbYUs3nzVm3c+KOUCo2mLaZNpm0DxXsPAAAAGJmM0tKy9bbcq7y8TNdee62am5vV2tpqayNqa1/S8eOnFAgEVFCQr5KSIjtlfJnzKevqXtaGDY/r/vs32dqYqqoqrV69WpmZmbYGAAAAyTQ2NqqlpUXyOP88nsjDfFVVzw4rbP45D/MVlubOnaM1TthqaGhQTU2Nurq67GLSQ25urtauXaslS5bYGgAAAAyltq5OR44c6RcWnULybnVM4Fq+fLkdSx+mzYRFAACACyNpYDRWrFihVatWuXvtUp1po2mraTMAAAAujCEDo+nLcM2aNe4hXnNeYKoybTNtNG2l/0UAAIALJ+FFL7Orq+1YRGVlpRYtWuQOzYUk5mEufDGPiWA6FjdtqXbauXLlSvcCl1mzZtmpAAAAGKnoRS8Dz2FMeNFLXW2tfSkAAACmgtVr1oz8ohcAAAAgabc6AAAAGB1zc5FDhw7p4MGD7mHeM2fOyOfz2anjy1zfYW6ZbO6CZ25sMn/+fOXk5NipMYm61SEwAgAAXGCmL+v6+no1NTXZmtRiLhZeunTpoG4IR9UPIwAAAIavs7NTtbW17o1PUjUsGqZtpo2mrabNQyEwAgAAXCC7d+/Wjh070uIueaaNpq2mzUMhMAIAAFwA5jD0nj177Fj6MG02bU/GDYxhtxjVfwwAAADJmQtczDmL8fYsfuUr0i9+IR075qQsJ2ZNxMMcHTdtMG0ZyLTZtN28h17Oa8zDDAz2MAIAAIyRuRo63jmL//Iv0oMPSrfdJg24J8q4uvzySBtMW0ybBjJtN+8hEQIjAADAGJmucwYye/P+/u+l3FxbkQJMW0yb4u1pjPceogiMAAAAY2T6WBzoL/4itcJilGmTadtApq/IRAiMAAAAY3T27Flbilm2zBZS0PXX20If8UJvFIERAABgjOL1ZWjOG0xV8c6nTHYXGgIjAAAAkiIwAgAAICkCIwAAAJIiMAIAACApAiMAAACScgOjxy063Pu/9I4BAABgKhoQB9nDCAAAgKQIjAAAAEiKwAgAAICkCIwAAABIisAIIC0FO47rwMt/0O+2bdP2ur062uK3U0bJ36qmhhf07G+36bfbn9eetz9Ql3shYAJtr+rH9/9Sb3XZ8T7CrfX62SNP6c0OWwEAaY7ACCDt+I5s1yMPPKEXj3tUXjlD+ecPaNtDG/WLfS0K2XkSa9Oftz+p3x+M3ffVf+oVbfn+v+s3+9uUO71S0/I6dfS1P+vs0AuLy5NTqSuXLtD0bFsBAGmOwAggvXS+rWefelPTPn2X/u62W/SRZSu06lNf0t1fWKQPnn1aDa1hKRRQjz8U6SnMcMeDzrjzFQqq7f2Tavf3qNvM439HtT/foeBNf6N77vykVq1YphtXf1Kf//zNusSTaDl9heU/36Kz7d2xsJozQ1deu0AVmXbcEQ50qq2lRW1dgQGvB4DUR2AEkFZ8x/braOENWrWouF83YTmXL9cNM9/XG4fbFDxRq0c21emkTXChkzu16eHndTx0Vnt+8rh2vt+ug9t/oI1bduvEsdd0wHudbrlumvrkO1fi5UTGpW4dfmaTHvrRFj3x0Hf1vZ++qtNBp7q9Xlse/I0Odpt5gjrTsFUbvrNRjz/5U/1ww2btPkNkBJBeCIwA0khYvpYWeadNV9GgrVeeKqblyNfWkWQPXoVW3PkV3VxZpCs+dZf+4cs3Kuf0aWnGh1SaYWcZiY73dH7O7Vq3bp2+dt8XdNWZHap9q/+Ji6EPdunXz3Vq+V/fp6/dfY/+/r7btaSIGyQASC8ERgBpxeP1KhwMxjlXMaxgIKyMrMxh3a/K67UJ0Zk5HOpz2Hkkci/XVfNLIhvSrEotmJersx+09Wtb69FD6qi+QYunRfZfejLzlce5jQDSjLudG3g+DgCkJo+KZs6Up/mw3ht4dbL/lI6+E9TMypLIeNicsRgtJgqEzvJmOMt7N87yopItxwmdmb1/dofk7wk6Vd4+gTWskBNGQ84yACCdsYcRQFrJrlquGysOq+aZfToTsEEs2KaDf3xabxQu14rZOfLmFSrP975OtJvpAZ0+0ihzLUyER15vWP5AwB3Lrl6mZaVv65nfNei0PzpTSJ2nP1BHbrLlODrf1dvNPjdEhjuOav9hadbl5X0Co0fFl85S5rEGvXUust8x3NOm9kThFABSlKeqenbYEfkr2v1LOqy5c+dqzerVdhYASDGd72jnL3+tl5u7lZ2bqUB3j3Jm3ajP/uXNqsozx5jbdeDXP9C2w05gK8xU3owydb0/XZ+551Zd6g3q5IuP6fGXO1Rw6TL95ztuVEVXk3ZuNcvrUlZejjz+bgXLVuiLf32dWn6TYDnnX9WPH3tD2WXn9UG75G/3qfDDt+nOj89RXtur+tEPm7T8rr/UwtxuNe/4qZ586ZRySvIV8BXqI//1y1pRPpwD5wDSxfr1620pJtUPLnjibIZWOfnvyJEjzjSP8yevM4MZmgeBEUB6CivYdV5tvoAy84tVmJvRZ8+eEVJ3+zn5vEUqdUKkP+hRVlZ0npD8He3qzChUsfO6CLu8jh55cotUnJ8trztzguWEAvIHpIwsqbutXT3Zzmvy7PmT4aAzLayMzEy7DGcp3efV6gsqp7BY+Vn9Wwog/U32wMghaQBpyqMMJ9iVlZepaFBYNLzKKSpXWUGWPN5MZfeGRcOrrIKSPmHRsMurqFBpQTQsGgmW45Szsk0gzFReSZlKomHR8GQ4oTIWFg1vTqHKykoIiwDSEoERAAAASREYAQAAkBSBEQAAAEkRGAEAAJAUgREAAABJERgBAACQFIERAAAASREYAQAAEOPe7zRSjCIwAgAAjFF+fr4txTQ22kIKeucdW+gjLy/PlgYjMAIAAIxRRUWFLcW8+qotpKBXXrGFPsrLy21pMAIjAADAGJWVldlSzDPPSF1ddiSFmDaZtg0UL/RGERgBAADGaMGCBbYU89hj0ve+l1qh0bTFtMm0baB47yGKwAgAADBG8+fPV1VVlR2L+W//TbrnHmnr1vjnDY4Xcz6laYNpi2nTQKbt5j0kQmAEAAAYo5ycHC1dulS5ubm2JsbszftP/8mEMsnjmZjH7NmRNsTbs2jabNpu3kMiBEYAAIALYMmSJVq+fLkdSx+mzabtyRAYAQAALpAVK1Zo1apVcfc0phrTRtNW0+ahEBgBAAAuENOX4Zo1a7R27dq45zSmCtM200bT1mT9L0ZllJaWrbflXqYfntnV1XYMAAAAI1FZWalFixa5w8zMTPcRCATcx0QwHYubtlQ7+W7lypVavXq1Zs2aZafGNDY2quVsizwej/swJ0C65arq6nA4LNkndzh33lzV1dbalwIAAGAqWL1mjY4cPtI/LDoPDkkDAAAgqYR7GNesXm1nienu7tahQ4d08OBBtbS06MyZM/L5fHbq+DLH282hc9Mruelo0vQdlOxycAAAACRXW1cXdw/jsANjQ0OD6uvr1dTUZGtSizl50/QhNNRl4QAAAIgvUWAc8pB0Z2enamtrVVNTk7Jh0TBtM200bTVtBgAAwIUxZGDcvXu3duzYoa5UvHv2AKaNpq2mzQAAALgwkgZGcxh6z549dix9mDabtgMAAGDsEp7D+JEbb9SWLVviHoa+887btHbtai1dulhVVZfa2vHV3Hxce/e+rpqaOm3evNXWxphzGu+44w4uhAEAABimROcwZpSWlsbtuNsc3t21a5etifnGN/5RX//6fbr66oUqLS22teOvpKRICxfO0623rlRhYaFqa1+yUyJaW1vdDipnzJhhawAAAJBM3467+wbGhIekTdc5A5k9i+vWfTml9tqZtpg2mbYNFO89AAAAYGQSBkbTx+JA5jB0Kh7iNW0ybRvI9BUJAACAsUkYGM+ePWtLMdddd40tpR5zPuVA8UIvAAAARsYGxnBk0Ee8vgwvu+wSW0o98S6+mai70AAAAEwOJiOGk3erAwAAABAYAQAAkBSBEQAAAEkRGAEAAJAUgREAAABJERgBAACQFIERAAAASREYAQAAkBSBEQAAAEkRGAEAAJAUgRFA6uo6rv279+jgmZCtSC7YcVwHXv6Dfrdtm7bX7dXRFr+dMkr+VjU1vKBnf7tNv93+vPa8/YG6Bt9JNabtVf34/l/qrS473ke4tV4/e+QpvdlhKwAgjRAYAaQur0/Hdu3TKXlsRWK+I9v1yANP6MXjHpVXzlD++QPa9tBG/WJfi4aOm2368/Yn9fuDsXvo+0+9oi3f/3f9Zn+bcqdXalpep46+9medHV52HcSTU6krly7Q9GxbAQBphMAIID2Eg/L3BBQKh9TT3qJzHX73lviuzrf17FNvatqn79Lf3XaLPrJshVZ96ku6+wuL9MGzT6uh1ZkzFFCPPxR7jTsedMadr1BQbe+fVLu/R91mHv87qv35DgVv+hvdc+cntWrFMt24+pP6/Odv1iWeRMvpKyz/+Radbe+OhdWcGbry2gWqyLTjjnCgU20tLWrrCgx4PQCkFgIjgPTQXq8tDz6pbVs3adOPf6JHv/dt/fCFEwo4k3zH9uto4Q1atai4377InMuX64aZ7+uNw20KnqjVI5vqdNImuNDJndr08PM6HjqrPT95XDvfb9fB7T/Qxi27deLYazrgvU63XDdNffKdK/FyIuNStw4/s0kP/WiLnnjou/reT1/V6aBT7bb/NzrYbeYJ6kzDVm34zkY9/uRP9cMNm7X7DJERQOoiMAJIH75TCi3+ou5Zd6/uvf0qte99Te/6w/K1tMg7bbqKBm3R8lQxLUe+to4ke/AqtOLOr+jmyiJd8am79A9fvlE5p09LMz6k0gw7y0h0vKfzc27XunXr9LX7vqCrzuxQ7Vv9T1wMfbBLv36uU8v/+j597e579Pf33a4lRUMfdgeAiUJgBJA+ci/TFVUF7l7E3OmXqDzsky8gebxehYPBOOcqhhUMhJWRlTmMsyCdDaLXJkRn5nCoz2Hnkci9XFfNL4lsXLMqtWBers5+0Navba1HD6mj+gYtnhbZf+nJzFce5zYCSGEERgDpw+OVN5r8PB5b9qho5kx5mg/rvYFXJ/tP6eg7Qc2sLImMh80Zi9FiokDoLG+Gs7x34ywvKtlynNCZ2btlDcnfE3SqvH0Ca1ghJ4yGnGUAQLogMAJIe9lVy3VjxWHVPLNPZwI2iAXbdPCPT+uNwuVaMTtH3rxC5fne14l2Mz2g00caZa6FiXDCpzcsf8CcEeksr3qZlpW+rWd+16DT/uhMIXWe/kAducmW4+h8V283+9wQGe44qv2HpVmXl/cJjB4VXzpLmcca9Na5yH7HcE+b2hOFUwBIAQRGAKnNE4taCWVM14rb/0pLfHXa9K1v6Tvf/Y7+9VsPavuZK3Xbf75RMzKcxZRdrRVzP9CzDz+gjQ8+rKdP5qusd9GFunxuoY7+7lFt+MkunfbO1Ec+f7uWdJrl/Q/923e/q2//67/q+78+oPOlyZbjKChV1+4fasPGDfru93+r01d/SqursuzEiKzLV+uzy7r1xwf/TQ+Y+b73Kx3w9U2dAJBaPFXV1WGHOcISOcziPObOm6sddXWROfro6HD+VE5hBQXzbClm/fr1tgQg/YQU6AlImdnKVEB+p2jOR3QPRZtudvwhebOylNEb2MIKdp1Xmy+gzPxiFeZm9NmzZ4TU3X5OPm+RSvM88gc9ysqKzhOSv6NdnRmFKnZeF2GX19EjT26RivOz7WHwBMsJRdsodbe1qyfbeU2ePX/StNecT5lp2+8IdZ9Xqy+onMJi5Wf1bykATIRaJ/8dOXzE+Vvd2SY5j8jAwx5GAKnM62RFJyyaLZU3U1nZsbAlT4Yz3jcsGh5lOMGurLxMRYPCouFVTlG5ygqy5HGWl90bFg2vsgpK+oRFwy6vokKlBdGwaCRYTm8bM5VXUqaSaFg0THujYdfy5hSqrKyEsAgg5REYAQAAkBSBEQAAADH9DnpERgiMAAAASIrACAAAgKQIjAAAAEiKwAgAAICkCIwAAABIisAIAACApBIGxvz8fFuKaWp6z5ZST3PzcVuKycvLsyUAAACMVsLAWFFRYUsx9fX7bSn17N37ui3FlJeX2xIAAABGK2FgLCsrs6WYmpo6dXd327HUYdpk2jZQvNALAACAkUkYGBcsWGBLMZs3b9XGjT9KqdBo2mLaZNo2ULz3AAAAgJHJKC0tXR8phiMDhzmUu+Taa9Xc3KzW1lZbG1Fb+5KOHz+lQCCggoJ8lZQU2Snjy5xPWVf3sjZseFz337/J1sZUVVVp9erVyszMtDUAAABIprGxUS1nW+TxeOQ8uUO3WFVdHXbIPExmNMO58+ZqjRO2GhoaVFNTo66uLruY9JCbm6u1a9dqyZIltgYAAABDqa2r05HDRwYFxqTd6pjAtXz5cjuWPkybCYsAAAAXRtLAaKxYsUKrVq1y99qlOtNG01bTZgAAAFwYQwZG05fhmjVr3EO85rzAVGXaZtpo2kr/iwAAABdOn4teYsxFL7Orq+1YRGVlpRYtWuQOzYUk5mEufDGPiWA6FjdtqXbauXLlSvcCl1mzZtmpAAAAGKkRX/RSV1trXwoAAICpYPWaNSO/6AUAAABI2q3OQKaT7EOHDungwYNqaWnRmTNn5PP57NTxZc5TNIfOzd1cTAfd8+fPV05Ojp0KAACAkUrUrc6wA6Ppk7G+vl5NTU22JrWYi16WLl1KdzoAAACjNKp+GI3Ozk7V1ta6HXinalg0TNtMG01bTZsBAABwYfQJjE587DOI2r17t3bs2JEWd3sxbTRtNW0GAADAWIXd56R7GM1h6D179tix9GHabNoOAACAsetzDqMzZobO19y5c/WRG2/Uli1b4h6GvvPO2/SJT6zWhz+8WFVVl9ra8dXcfFx7976umpo6bd681dbGmHMa77jjDi6EAQAAGKbB5zCagSdxx93m8O6uXbtsTcw3vvGP+ud/vk+LFy9UaWmxrR1/JSVFWrhwnm65ZaWKigpVW/uSnRLR2trqduw9Y8YMWwMAAIBkBnfcHQmMCQ9Jm65zBjJ7Ftet+7Jyc1Nnr51pi2mTadtA8d4DAAAARiZhYDR9LA60du3qlDzEa9pk2jaQ6SsSAAAAY5MwMJ49e9aWYq677hpbSj1Lly62pZh4oRcAAAAjkzAwxuvL8LLLLrGl1BPv4puJugsNAADAZJK0Wx0AAACAwAgAAICkCIwAAABIisAIAACApAiMAAAAiPHYYR8ERgAAACRFYAQAAEBSBEYAAAAkRWAEAABAUgRGAAAAJEVgBJDygh3HdeDlP+h327Zpe91eHW3x2ykj1HVc+3fv0cEzIVsxBH+rmhpe0LO/3abfbn9ee97+QF1hOy2etlf14/t/qbe67Hgf4dZ6/eyRp/Rmh60AgDRCYASQ0nxHtuuRB57Qi8c9Kq+cofzzB7TtoY36xb4WDR372vTn7U/q9wftvfG9Ph3btU+n4vUZMYD/1Cva8v1/12/2tyl3eqWm5XXq6Gt/1tlhZs2BPDmVunLpAk3PthUAkEYIjABSV+fbevapNzXt03fp7267RR9ZtkKrPvUl3f2FRfrg2afV0BqWQgH1+EPq3fHnjgedcecrFFTb+yfV7u9Rd995jHBQ/p6AQuGQetpbdK7DH5vuf0e1P9+h4E1/o3vu/KRWrVimG1d/Up///M26xJNofX2F5T/forPt3bFQmzNDV167QBWZdtwRDnSqraVFbV2BAa8HgNRCYASQsnzH9uto4Q1atai43z7BnMuX64aZ7+uNw20KnqjVI5vqdNIms9DJndr08PM6HjqrPT95XDvfb9fB7T/Qxi27daZvKmuv15YHn9S2rZu06cc/0aPf+7Z++MIJBZxJXcde0wHvdbrlumnqk+9cidcXGZe6dfiZTXroR1v0xEPf1fd++qpOB51qd32/0cFuM09QZxq2asN3NurxJ3+qH27YrN39GgcAqYXACCBFheVraZF32nQVDdpS5aliWo58bR1J9sxVaMWdX9HNlUW64lN36R++/BFNG3gk2ndKocVf1D3r7tW9t1+l9r2v6V1/WB2nT0szPqTSDDvfSHS8p/Nzbte6dev0tfu+oKvO7FDtW/1PXAx9sEu/fq5Ty//6Pn3t7nv09/fdriVFQx8mB4CJQmAEkLI8Xq/CwWCccxXDCgbCysjKHMbZiM6Gzpsg+eVepiuqCtxl5E6/ROVhn3xmF6NTEQ4NOIQ9XLmX66r5JZGNa1alFszL1dkP2vq9h9ajh9RRfYMWT4vsv/Rk5iuPcxsBpJjI9jXyTGAEkKI8Kpo5U57mw3pv4FXH/lM6+k5QMytLIuNhc8ZitDiCoOfxyhtNnB6PLTvrneGs9904641Ktj4nnGb2bllD8vcEnSqv3eQaYYWcMBpylgEA6YLACCBlZVct140Vh1XzzD6dCdiAFWzTwT8+rTcKl2vF7Bx58wqV53tfJ9rN9IBOH2mUuRYmwgmB3rD8AbPbcPiyq5dpWenbeuZ3DTrtjy4spM7TH6gjN9n6HJ3v6u1mnxsiwx1Htf+wNOvy8j6B0aPiS2cp81iD3joX2e8Y7mlTe6JwCgApIKO0tHS9LfcqLy9XU2OjHYv5p3/6mi2lpm9+8wFbilm9erUtAUg73gLNumKWul+v0W+279Qrr+7RCzt361jWUn3ur27SpdkeeXJLlXPyRT3zh1f0+r56HVOxsjoKtPCGuSr2ZCnz/JuqfW6PGhrDmrOoQM2vNirv2g/r8owT2lffqktvWKTp5shwzwm9Xt+iD11/laZnF+qyhdH17tCeV/+kXS/s1O7GHC28cYmmnUqwvp7j2negTeEze1T34it66YUDClz7WX3mumnK6namOeubdf0izay4TJcEGrTtV3/Q3tfr9fKLR5S7+FrNyovFSgCYCI1O/mtpaXH+tHW+PM42yXm4g6rq6rDDHGGxh1nCmjt3rnbU1UVe2UdHh/OncgorKJhnSzHr1w/KwwDSTljBrvNq8wWUmV+swtyMPnvsjJC628/J5y1SqRO6/EGPsrKi84Tk72hXZ0ahinM9CvQEpMxsZSogv1M050G6h6JNNzv+kLxZWcroXbhdb0ePE0yLVJyfbQ9bJ1hfKLpMqbutXT3Zzmvy7HmWZvnmvMtMuz5HqPu8Wn1B5RQWKz+rd6UAMGFqnfx35MiRQYGRQ9IA0oBHGU5gKysvU9GgsGh4lVNUrrKCLHm8mcruDYuGV1kFJU5YNBe+eJ2s6IRFs+Vz5svKjoU3eTKc8b5h0bDrrahQaUE0LBoJ1te7zEzllZSpJBoWDbP8aDi1vDmFKisrISwCSHkERgAAACRFYAQAAEBSBEYAAAAkRWAEAABAUgRGAAAAJEVgBAAAQFJOYKQ7BwAAACTiYQ8jAAAAkksYGPPz820ppqnpPVtKPc3Nx20pJi8vz5YAAAAwWgkDY0VFhS3F1Nfvt6XUs3fv67YUY+6JDQAAgLFJGBjLyspsKaampk7d3d12LHWYNpm2DRQv9AIAAGBkEgbGBQsW2FLM5s1btXHjj1IqNJq2mDaZtg0U7z0AAABgZDJKS8vWS2E7GmEO5S659lo1NzertbXV1kbU1r6k48dPKRAIqKAgXyUlRXbK+DLnU9bVvawNGx7X/fdvsrUxVVVVWr16tTIzM20NAAAAkmlsbFRLS4s85svjkfPkDj1V1bPD4XBIYZMZnSfzNXfuXK1xwlZDQ4NqamrU1dUVWUqayM3N1dq1a7VkyRJbAwAAgKHU1tXpyJEjgwJj0m51TOBavny5HUsfps2ERQAAgAsjaWA0VqxYoVWrVrl77VKdaaNpq2kzAAAALowhA6Ppy3DNmjXuIV5zXmCqMm0zbTRtpf9FAACAC8de9GJvEGjvEmguepldXR0ZsSorK7Vo0SJ3aC4kMQ9z4Yt5TATTsbhpS7XTzpUrV7oXuMyaNctOBQAAwEgNvOil9zzGyEUv4d4LXkzZXPRSV1trXwoAAICpYPWaNf0ueokGxiEPSQMAAGBqS7iH0XSrM5DpJPvQoUM6ePCgu7vyzJkz8vl8dur4MucpmkPn5m4upoPu+fPnKycnx04FAADASA3sVmfIQ9IDA6Ppk7G+vl5NTU22JrWYi16WLl1KdzoAAACjlCgwDnlIurOzU7W1tW4H3qkaFg3TNtNG01bTZgAAAFwYcQKjyZQxu3fv1o4dO9Libi+mjaatps0AAAAYJRMG+wRCNzC6431TomUOQ+/Zs8eOpQ/TZtN2AAAADF8kJw4Ohe45jO75i/YcRvOvqrpKy5ct09atW+Mehr7zzr/UJz6xRh/+8GJVVV1qa8dXc/Nxvfrq63r22Vpt3vxLWxtjzmm84447uBAGAABgGMzFzS+88GIk+zmZ0T2HMVKwHXf3BslIIS83T909PXrllVfc8b6+8Y1/1D//8/+qxYsXqrS02NaOv5KSIl155TzdcsvNKioqVG3tS3ZKRGtrq9ux94wZM2wNAAAAEjnnZKfGpkZ1nO9wQ2LkepdIaPT2ZkVHtNzd061TJ0/asZg777xN69Z9Wbm5qbPXzrTFtMm0bSDT/Q8AAACGdr69XT3dPW45kgltMnQG3t6U2KfyfPt55eTkDron89q1q1PyEK9pk2nbQKavSAAAACRn+tVubGzS+fPneyNhRGTEGynEwqLh9/t19uxZzZ03L1JhXXfdNbaUepYuXWxLMaZjcQAAACR3+MgRnT592s2ALicT2ljo6NMPozlOHZkUmXyu9Zzy8/J19dWLe/c0XnbZJe4wFcW7+Gai7kIDAACQDkxWev31/WpublZrW6tb517oYh6Rf65YtzqWW7ZPx0+ccK+cvu7661VdXa3duxuc9MlhXgAAgHRlroY2exMbGxu155VX9PbBt/X+iffdnnL6hUIzYsc9s2fPiXSo494d0MwZKbtd7dhyVlamigqLlJ2TrdycXGVkeN1lRp4SSToxqVG/cvSrHIPxX2l6vc0Jae24myI/eo6p8f2cGP220pPXBLzNKfLJOkb5TqfM92T81xo5ejvekqzUmWSmBgJBJzR2uT3imHMW/f6A29ZoFzr9y3Z89hwnMJrfAb0B0Rkx/+x45F+f+shT7zARd/pojfKlE7HOsRh1e0fd1tG/yQn4eNLre5JupsjbxBCcXwJIzP2FOd7GsMrRvzR93udEfE/ceymPtzGsMuln5Exyp0dDYKTCHUbuGR2t6zvdlgcHRrNEM3QK7r/+5UHDBCILHWdjWGWy95LUhLzNKdDWsZiAVY7FhHxGwARxfwFNBaN8m2P7dCZkpaMyIT8Ho/54xtDWFFunu1z3X9+h89y3zoxH681r3IlOefacuc7vK/Mry/mlZf4NKjv61pmvSKX7LxH7ytEZ5UunyjpHa0xtHa0JWOVYVppmzcVFMhH/VyKbZiQ0AR/P2FY5ylen0Y/BhPzMjmGVo27vZFqnO8mZwxm68/UO+9ZFyu6YKbtFZzjHCYxm4+iGQBsM+5Yj/2LDgXsbE3Gnj7cxrHLU7Z2QtzkF2joWE7DKsax0Qpo7VaTTh+tulSe/iXmbE7DWCVnlOK90DKsb97Yao1zlmNo6EetMxgbAQYef3WmR8USHpm1gdLarkedIWHSHTsH9Z4fOeGSSGUanJRFZ0KjYNY2vUa5yTG0d57eZTm0diwn5+RmLNGvu6E2ZNzrOnK35VJBmb9P9ZTvexnmV6fYeR93eNFtnshe7U5wnt119wuDAOnfMlN1ipM4zZ64TGN3tuPNr1gxtMOwXIG1dZOiU3H+RYSL2FaMzypeOaZ2jNaa3Oc7tnZCPJ72+J6M1Ie8TF89EfDvdLTMSsb+60scENHfcP6N0e4+jfOmE/OxFUtuoJH2lM9F9P+afuw777mwodMdNuU+dO2bKc+bOc37XRX7d2eRoh261GYn8MnT/xRkmkmTSUJIuN5kxrHO0Rt3WMYh+n8bVBKxytCbie5JOn89EmZDvyxRgN+1IZgI+ogn5vqTRj0IkrIyvUX9PxtTU0b34Yq0yEv4GDu0nMyAgRqr6THMDo2M4ITGSU+z4EKHFfd1ojfKlE7HOsRhTe0djTB/PBHxAozUVvpdjlWbNxUUS+Z2QFuyvrfQxAc0d989oKrxHw4an0Rj1K8fwNpN+Rs4kd7o7i1PqMx4Z2lebYaTgDN2CPHOdwOj+7nBDohm4z/af8xWpdKf1DvvUXwzRtYzYGJoz6nWOxTivMt3e44S0d7TSqKlTSTr9DNnNNC6GNPpox/RzMM7vc0J+ZidkleP/Pblon62z2MheQ7v8AQHRHesdDpg2d958JyOajaqzaXW3rQOGzlNkNMEwoeRTkxrlS4dqUVJjeOlojbq96dTWicDng7GaiG+nu2XGxWB/7Y2vNPp+ptPnk27fy1G3d0xvM/GL3Sl9g+DAYaTgDt3aSIUzcMZMYHR/3ZkNZG8IHDCeZJhI4inDkGS5F4t9R+NrlKscfUvH8B4n4OMZrQn5Xk6EKfM2p8gbnQD218T4moBVToSp8dmOfoWjfuUY3mM6fU8uWltN8Bvp0Hm4xXlmD6MpuSHQKbn/nK/oNtqtNwP3uXe6/ZdE8qnJ9K57xEa/zrG8dLQin+w4mpCPJ72+JxNh3H8OgDRkf32ljwlo7rh/Run2HtOpvWNqa+IXu1OcJ7ddccJhdBBveiwwml9bbmHg0Cm5hVh95F9kmEiSScMwylePYaXu+xlv47zKdHuPo3/pBLzPsUiz5gITIvK7LG3YX7Ujl0bvc9TvcSzGtMrRvXgCVum87CJ9ts5i3WW7i3dKveNuhR3YtZug2Fsv/f8BkCean7zzvfwAAAAASUVORK5CYII=;" vertex="1" parent="1">
          <mxGeometry x="1298" y="220" width="652" height="539" as="geometry" />
        </mxCell>
      </root>
    </mxGraphModel>
  </diagram>
</mxfile>
